<svg width="1131" height="1196" viewBox="0 0 1131 1196" fill="none" xmlns="http://www.w3.org/2000/svg">
<path d="M1130.84 630.541C1130.84 561.959 1118.63 496.204 1096.25 435.372C1080.95 614.609 985.39 706.673 885.544 663.801C792.018 623.623 855.045 467.002 859.701 392.267C867.551 265.58 859.302 120.567 629.177 0C724.799 182.929 640.253 296.578 551.582 303.496C453.199 311.179 363.098 218.95 396.358 69.2803C288.662 148.638 285.536 282.21 318.763 368.619C353.419 458.687 317.366 533.522 232.852 541.837C138.394 551.15 85.9103 440.693 134.303 264.682C50.555 363.298 0 491.016 0 630.541C0 942.818 253.141 1195.96 565.418 1195.96C877.695 1195.96 1130.84 942.818 1130.84 630.541Z" fill="#F4900C"/>
<path d="M911.121 796.807C916.044 899.381 825.943 939.592 777.45 920.168C707.404 892.13 726.196 843.97 708.169 744.19C690.142 644.41 620.862 575.13 518.322 544.631C593.157 755.265 476.847 832.894 415.881 846.763C353.619 860.932 291.057 846.73 283.906 713.491C211.267 785.798 166.299 885.844 166.299 996.4C166.299 1008.64 167.064 1020.68 168.129 1032.65C270.236 1133.56 410.493 1195.96 565.418 1195.96C720.342 1195.96 860.599 1133.56 962.707 1032.65C963.771 1020.68 964.536 1008.64 964.536 996.4C964.536 923.66 945.113 855.511 911.121 796.807Z" fill="#FFCC4D"/>
</svg>
