<svg width="1818" height="1887" viewBox="0 0 1818 1887" fill="none" xmlns="http://www.w3.org/2000/svg">
<path d="M363.152 209.555C415.541 157.166 376.249 0 287.817 0C199.385 0 205.986 104.778 258.374 104.778C310.763 104.778 310.763 209.555 310.763 261.944C310.763 314.333 363.152 209.555 363.152 209.555ZM144.01 299.664C196.399 247.275 157.107 90.1087 68.6747 90.1087C-19.7575 90.1087 -13.1565 194.886 39.2322 194.886C91.621 194.886 91.621 299.664 91.621 352.053C91.621 404.441 144.01 299.664 144.01 299.664Z" fill="#AA8DD8"/>
<path d="M1525.77 1721.29C1535.67 1763.62 1590.05 1840.74 1632.22 1830.84C1674.45 1820.88 1688.64 1727.58 1678.74 1685.35C1668.84 1643.02 1626.46 1616.88 1584.23 1626.83C1542.06 1636.79 1515.81 1679.07 1525.77 1721.29V1721.29ZM1241.09 1755.29C1241.24 1798.77 1276.76 1886.16 1320.14 1886C1363.52 1885.79 1398.41 1798.15 1398.25 1754.72C1398.1 1711.29 1362.79 1676.29 1319.41 1676.39C1276.03 1676.6 1240.93 1711.86 1241.09 1755.29V1755.29ZM964.947 1627.15C947.868 1667.17 945.825 1761.42 985.692 1778.55C1025.67 1795.53 1092.41 1728.94 1109.49 1688.97C1126.51 1649.05 1108.02 1602.89 1068.15 1585.76C1028.23 1568.74 982.078 1587.18 964.947 1627.15V1627.15ZM701.379 1048.78C658.839 1057.79 580.465 1110.23 589.319 1152.66C598.382 1195.1 691.215 1211.55 733.755 1202.59C776.242 1193.63 803.38 1151.93 794.526 1109.5C785.515 1067.06 743.971 1039.82 701.379 1048.78ZM594.663 786.833C552.123 795.844 473.749 848.285 482.603 890.72C491.666 933.155 584.499 949.605 627.039 940.646C669.526 931.688 696.664 889.986 687.81 847.552C678.799 805.117 637.202 777.875 594.663 786.833V786.833Z" fill="#744EAA"/>
<path d="M1401.99 1781.22C1550.3 1781.22 1660.05 1735.27 1677.87 1727.41C1796.84 1674.5 1850.38 1535.2 1797.52 1416.28C1745.19 1298.4 1608.08 1244.7 1489.89 1295.05C1482.93 1297.67 1395.96 1329.05 1314.76 1291.28C1217.79 1246.17 1157.85 1117.92 1124.69 1018.38C1117.15 995.858 1104.52 951.642 1088.75 897.052C990.997 558.045 940.389 463.011 880.09 382.595C685.675 123.218 377.576 105.144 226.121 135.529C98.4491 161.043 15.6225 285.256 41.1882 412.928C66.7539 540.652 191.02 623.531 318.639 597.86C327.126 596.498 434.104 581.829 498.018 659.103C531.704 726.527 606.987 927.752 635.801 1027.61C653.927 1090.42 668.753 1141.34 677.397 1167.33C770.283 1445.88 921.843 1633.22 1128.1 1724.17C1225.12 1767.02 1319.53 1781.22 1401.99 1781.22Z" fill="#9266CC"/>
<path d="M324.745 314.332C353.679 314.332 377.134 290.877 377.134 261.944C377.134 233.01 353.679 209.555 324.745 209.555C295.812 209.555 272.356 233.01 272.356 261.944C272.356 290.877 295.812 314.332 324.745 314.332Z" fill="white"/>
<path d="M1594.73 1726.95C1590.07 1726.95 1585.3 1726.32 1580.64 1725.06C1552.76 1717.31 1536.42 1688.44 1544.17 1660.57C1583.83 1517.97 1503.83 1422.62 1503.05 1421.68C1484.24 1399.73 1486.7 1366.62 1508.65 1347.81C1530.55 1329 1563.71 1331.47 1582.52 1353.42C1587.34 1359.02 1699.56 1492.77 1645.13 1688.55C1638.73 1711.76 1617.62 1726.95 1594.73 1726.95V1726.95ZM1217.58 1697.45C1204.75 1697.45 1191.91 1692.79 1181.75 1683.31C1160.63 1663.51 1159.53 1630.34 1179.28 1609.23C1257.08 1526.09 1255.41 1389.56 1255.35 1388.15C1254.52 1359.23 1277.3 1335.13 1306.28 1334.29C1334.67 1334.03 1359.35 1356.25 1360.13 1385.22C1360.34 1392.5 1363.96 1565.28 1255.82 1680.9C1245.5 1691.9 1231.52 1697.45 1217.58 1697.45V1697.45ZM770.076 1241.88C744.93 1241.88 722.717 1223.7 718.473 1198.03C713.758 1169.53 733.037 1142.5 761.589 1137.84C922.632 1111.12 1011.69 1013.31 1012.58 1012.31C1031.71 990.834 1064.87 988.791 1086.4 1007.91C1107.98 1027.03 1110.13 1059.93 1091.17 1081.57C1086.61 1086.76 978.217 1208.09 778.72 1241.15C775.787 1241.67 772.905 1241.88 770.076 1241.88V1241.88ZM923.104 1496.33C900.839 1496.33 880.197 1482.08 873.125 1459.77C864.428 1432.21 879.726 1402.71 907.282 1394.02C1048.37 1349.33 1110.55 1245.76 1111.18 1244.71C1125.85 1219.72 1157.91 1211.34 1182.85 1226.01C1207.84 1240.62 1216.17 1272.79 1201.55 1297.68C1198.25 1303.33 1117.99 1437.19 938.925 1493.82C933.634 1495.55 928.29 1496.33 923.104 1496.33V1496.33ZM681.12 937.345C655.135 937.345 632.556 918.014 629.203 891.505C625.588 862.796 645.915 836.601 674.624 832.934C815.497 815.122 918.598 729.676 919.594 728.785C941.702 710.24 974.759 712.912 993.357 735.02C1012.01 757.075 1009.34 790.028 987.332 808.731C982.251 813.079 860.552 915.027 687.773 936.874C685.521 937.188 683.32 937.345 681.12 937.345V937.345ZM585.72 687.608C563.455 687.608 542.814 673.306 535.741 650.883C527.097 623.274 542.395 593.884 570.004 585.188C733.98 533.69 792.813 444.157 795.223 440.385C810.677 416.182 842.949 408.69 867.257 424.04C891.618 439.337 899.267 471.137 884.231 495.603C881.088 500.685 805.334 621.126 601.384 685.198C596.198 686.822 590.907 687.608 585.72 687.608V687.608Z" fill="#744EAA"/>
</svg>
