<svg width="1440" height="500" viewBox="0 0 1440 500" fill="none" xmlns="http://www.w3.org/2000/svg">
<g clip-path="url(#clip0)">
<path d="M103.731 421.893L75.3565 425.551C71.7794 426.012 68.5747 425.46 66.0865 423.955C63.2465 422.235 61.4926 419.368 61.015 415.664C60.5548 412.094 61.633 408.897 64.1376 406.418C65.4601 405.106 67.1831 404.032 69.0783 403.309C69.4207 403.176 69.7187 402.949 69.9382 402.655C70.1577 402.36 70.2898 402.01 70.3195 401.644C70.6779 397.586 72.0719 393.961 74.417 391.038C77.1998 387.573 81.2227 385.328 85.6329 384.778C89.5531 384.273 93.3355 385.098 96.5715 387.164C98.7295 388.554 100.553 390.404 101.911 392.582C102.072 392.84 102.29 393.057 102.548 393.216C102.806 393.375 103.098 393.472 103.4 393.5C106.392 393.758 109.155 394.703 111.35 396.242C114.486 398.44 116.419 401.744 116.941 405.791C117.455 409.775 116.332 413.62 113.776 416.619C111.326 419.501 107.757 421.374 103.731 421.893Z" fill="black"/>
<path d="M120.186 386.461C120.284 386.137 120.298 385.792 120.226 385.461C120.154 385.129 119.999 384.822 119.775 384.567C119.472 384.229 119.06 384.007 118.612 383.94C118.163 383.872 117.704 383.963 117.315 384.196C116.09 384.927 114.459 385.448 112.588 385.703C105.889 386.616 99.5916 381.831 98.727 375.124C98.4808 373.214 98.5612 371.467 98.9604 370.069C99.0605 369.731 99.0688 369.372 98.9845 369.029C98.9003 368.686 98.7265 368.372 98.4808 368.118C98.1737 367.807 97.7709 367.607 97.3369 367.551C96.9028 367.495 96.4626 367.587 96.0867 367.81C91.6654 370.454 88.867 375.091 88.4061 380.208C88.4004 380.274 88.4079 380.34 88.4282 380.402C88.4485 380.465 88.4812 380.522 88.5243 380.572C88.5674 380.621 88.62 380.662 88.679 380.69C88.738 380.719 88.8022 380.736 88.8678 380.739C92.3552 380.9 95.7386 381.978 98.6774 383.862C100.827 385.239 102.709 386.994 104.232 389.043C104.541 389.458 104.998 389.736 105.508 389.821C108.517 390.317 111.272 391.407 113.596 393.036C113.998 393.319 114.384 393.615 114.756 393.924C114.846 393.998 114.959 394.038 115.076 394.035C115.192 394.033 115.304 393.99 115.391 393.913C117.668 391.938 119.332 389.352 120.186 386.461V386.461Z" fill="black"/>
</g>
<g clip-path="url(#clip1)">
<path d="M1337.44 130.342L1295.72 124.311C1290.46 123.551 1286.13 121.5 1283.2 118.38C1279.85 114.816 1278.49 110.053 1279.28 104.606C1280.04 99.3575 1282.83 95.2457 1287.37 92.7178C1289.76 91.3787 1292.63 90.5358 1295.61 90.2598C1296.15 90.2063 1296.66 90.0024 1297.09 89.6712C1297.52 89.34 1297.84 88.8951 1298.03 88.3872C1300.14 82.7699 1303.56 78.1758 1308.04 74.9544C1313.36 71.1367 1319.96 69.5411 1326.43 70.5057C1332.2 71.3389 1337.24 74.0063 1341.02 78.2179C1343.53 81.0442 1345.39 84.3919 1346.45 88.0207C1346.58 88.4498 1346.8 88.8439 1347.11 89.172C1347.41 89.5002 1347.79 89.7534 1348.2 89.9119C1352.35 91.4611 1355.89 93.8959 1358.4 96.9486C1361.98 101.309 1363.42 106.762 1362.56 112.714C1361.71 118.57 1358.6 123.584 1353.79 126.829C1349.17 129.951 1343.36 131.198 1337.44 130.342Z" fill="black"/>
<path d="M1374.81 86.5612C1375.08 86.1391 1375.23 85.6558 1375.26 85.1569C1375.29 84.658 1375.19 84.1598 1374.98 83.7094C1374.68 83.1102 1374.18 82.633 1373.57 82.3594C1372.96 82.0859 1372.28 82.0332 1371.63 82.2102C1369.6 82.7635 1367.08 82.8577 1364.33 82.4793C1354.46 81.1255 1347.41 71.8435 1348.84 61.9822C1349.24 59.1742 1350.05 56.726 1351.17 54.9001C1351.44 54.4592 1351.6 53.9528 1351.61 53.4329C1351.63 52.9129 1351.51 52.3981 1351.26 51.941C1350.95 51.3771 1350.45 50.9343 1349.86 50.6835C1349.27 50.4327 1348.6 50.3882 1347.98 50.5573C1340.66 52.5606 1334.86 58.0354 1332.18 65.1164C1332.14 65.207 1332.13 65.3035 1332.13 65.4002C1332.14 65.4968 1332.16 65.5917 1332.2 65.6791C1332.24 65.7664 1332.3 65.8445 1332.37 65.9087C1332.45 65.9729 1332.53 66.0219 1332.62 66.0527C1337.51 67.6607 1341.89 70.5276 1345.31 74.3647C1347.82 77.1692 1349.79 80.4053 1351.15 83.9157C1351.42 84.626 1351.96 85.2023 1352.65 85.5237C1356.72 87.4178 1360.2 90.0558 1362.86 93.2862C1363.32 93.8463 1363.75 94.4195 1364.15 95.006C1364.25 95.1463 1364.4 95.2471 1364.56 95.2901C1364.73 95.3331 1364.9 95.3155 1365.06 95.2406C1369.07 93.3379 1372.46 90.3261 1374.81 86.5612V86.5612Z" fill="black"/>
</g>
<path d="M94.4658 205.958L49.6977 248.376L68.9125 252.914L56.606 283.88C56.5822 283.941 56.5692 284.006 56.5681 284.071C56.5669 284.136 56.5776 284.199 56.5994 284.256C56.6212 284.313 56.6536 284.362 56.6942 284.4C56.7349 284.438 56.7828 284.464 56.8347 284.476C56.8898 284.489 56.9479 284.486 57.0044 284.467C57.0609 284.448 57.1141 284.414 57.1599 284.367L101.933 241.94L82.7185 237.403L95.0483 206.438C95.0698 206.375 95.0804 206.309 95.0794 206.244C95.0784 206.179 95.0659 206.116 95.0426 206.06C95.0193 206.003 94.9859 205.955 94.9444 205.917C94.903 205.88 94.8545 205.854 94.8023 205.842C94.7451 205.829 94.6848 205.832 94.6263 205.853C94.5678 205.873 94.5128 205.909 94.4658 205.958Z" stroke="black" stroke-width="5" stroke-linecap="round" stroke-linejoin="round"/>
<path d="M1240.54 285.693C1218.63 282.323 1198.06 297.407 1194.69 319.318C1191.32 341.229 1206.41 361.797 1228.32 365.168C1250.23 368.538 1270.8 353.454 1274.17 331.543C1277.54 309.632 1262.45 289.063 1240.54 285.693ZM1248.44 329.404L1224.54 339.25C1224.2 339.389 1223.83 339.435 1223.46 339.383C1223.1 339.331 1222.75 339.182 1222.46 338.952C1222.17 338.722 1221.95 338.42 1221.82 338.075C1221.68 337.731 1221.64 337.357 1221.7 336.992L1225.76 310.578C1225.82 310.212 1225.97 309.867 1226.2 309.579C1226.43 309.291 1226.73 309.069 1227.08 308.937C1227.42 308.805 1227.8 308.767 1228.16 308.827C1228.53 308.887 1228.87 309.043 1229.15 309.279L1248.99 325.851C1249.26 326.084 1249.48 326.383 1249.6 326.721C1249.73 327.059 1249.77 327.424 1249.71 327.781C1249.66 328.138 1249.51 328.475 1249.29 328.759C1249.07 329.043 1248.77 329.266 1248.44 329.404V329.404Z" fill="black"/>
<path d="M208.604 324.417C226.464 326.336 242.499 313.411 244.417 295.551C246.336 277.692 233.411 261.657 215.551 259.738C197.692 257.82 181.657 270.744 179.738 288.604C177.82 306.464 190.744 322.499 208.604 324.417ZM199.893 288.253L208.796 299.208L211.294 275.952L216.269 276.486L213.771 299.743L224.797 290.928L227.923 294.835L210.265 308.953L196.009 291.406L199.893 288.253Z" fill="black"/>
<path d="M1350.16 231.18C1348.05 215.632 1333.73 204.728 1318.18 206.837C1302.63 208.946 1291.73 223.272 1293.84 238.82C1295.95 254.369 1310.27 265.272 1325.82 263.163C1341.37 261.054 1352.27 246.729 1350.16 231.18Z" stroke="black" stroke-width="5" stroke-miterlimit="10"/>
<path d="M1319.37 221.92L1322.64 239.694L1321.05 221.692C1321.04 221.577 1321.01 221.465 1320.95 221.363C1320.9 221.262 1320.82 221.173 1320.73 221.101C1320.64 221.029 1320.54 220.977 1320.42 220.947C1320.31 220.917 1320.2 220.91 1320.08 220.927V220.927C1319.97 220.943 1319.86 220.982 1319.76 221.042C1319.67 221.101 1319.58 221.179 1319.51 221.272C1319.45 221.365 1319.4 221.47 1319.38 221.581C1319.35 221.692 1319.35 221.808 1319.37 221.92V221.92Z" stroke="black" stroke-width="5" stroke-linecap="round" stroke-linejoin="round"/>
<path d="M1324.23 251.416C1323.65 251.494 1323.06 251.399 1322.53 251.142C1322 250.885 1321.57 250.478 1321.27 249.972C1320.98 249.466 1320.84 248.884 1320.87 248.3C1320.91 247.716 1321.12 247.155 1321.47 246.689C1321.83 246.223 1322.31 245.873 1322.87 245.682C1323.42 245.492 1324.02 245.47 1324.58 245.619C1325.15 245.769 1325.66 246.083 1326.05 246.521C1326.43 246.96 1326.68 247.504 1326.76 248.084C1326.87 248.862 1326.66 249.65 1326.18 250.275C1325.71 250.9 1325 251.31 1324.23 251.416Z" fill="black"/>
<g clip-path="url(#clip2)">
<path d="M50.125 67.3389C51.295 78.3751 60.6575 87.0001 72 87.0001C75.0792 87.0036 78.1244 86.3565 80.9362 85.1014C75.8987 83.0351 70.43 80.3301 64.965 77.1814C59.625 74.1076 54.48 70.6876 50.125 67.3389Z" fill="black"/>
<path d="M101.59 75.4388C100.528 74.025 99.0901 72.4638 97.3401 70.8138C97.0062 72.2677 96.5461 73.6898 95.9651 75.0638C99.5551 78.7513 100.115 80.7313 99.9864 81.12C99.7364 81.3988 97.8551 81.9813 92.7176 80.6788C91.9818 80.4921 91.1768 80.2646 90.3026 79.9963C89.7393 79.8229 89.1647 79.6358 88.5789 79.435C89.4991 78.3796 90.317 77.239 91.0214 76.0288C91.0426 75.9925 91.0651 75.9563 91.0864 75.9188C92.9951 72.5963 93.9997 68.8317 94.0001 65C94.0006 64.2067 93.9589 63.4139 93.8751 62.625C92.6789 51.6038 83.3251 43 72.0001 43C67.1949 42.9973 62.5219 44.5736 58.7001 47.4863C56.3837 49.2493 54.4371 51.4512 52.9714 53.9663C52.9514 54.0025 52.9289 54.0388 52.9076 54.075C52.211 55.2886 51.6321 56.5661 51.1789 57.89C50.713 57.4842 50.2634 57.0813 49.8301 56.6813C49.1564 56.0563 48.5589 55.4775 48.0276 54.9313C44.3314 51.1488 43.8914 49.23 44.0076 48.875C44.2776 48.5713 46.2701 48.0575 51.2739 49.3188C52.1775 48.1287 53.1811 47.018 54.2739 45.9988C51.9164 45.2975 49.8001 44.83 48.0176 44.6238C44.1764 44.1838 41.6626 44.94 40.5439 46.875C40.1389 47.5725 39.7501 48.7613 40.2039 50.45C40.8751 52.9575 43.2676 56 46.6539 59.1875C47.7326 60.2038 48.9114 61.2338 50.1689 62.2675C51.0839 63.0175 52.0439 63.775 53.0314 64.5275C53.6905 65.0275 54.3634 65.5275 55.0501 66.0275C55.7368 66.5275 56.4326 67.0183 57.1376 67.5C60.3139 69.7013 63.6701 71.815 66.9614 73.7113C68.1564 74.3996 69.3497 75.0663 70.5414 75.7113C71.733 76.3563 72.9151 76.9733 74.0876 77.5625C76.8251 78.9375 79.5064 80.1775 82.0701 81.2413C83.1693 81.6979 84.2447 82.1213 85.2964 82.5113C86.7826 83.0638 88.2176 83.55 89.5851 83.96L89.7226 84.0013C92.9389 84.9588 95.6501 85.4625 97.7826 85.5013H98.0001C100.705 85.5013 102.538 84.7038 103.448 83.1263C104.584 81.1738 103.958 78.5863 101.59 75.4388Z" fill="black"/>
</g>
<g clip-path="url(#clip3)">
<path d="M193.863 144.75C195.668 155.647 189.943 163.644 179.046 165.448C168.148 167.253 160.151 161.529 158.347 150.631C156.41 138.936 166.526 121.041 169.674 115.828C169.787 115.642 169.937 115.484 170.117 115.362C170.296 115.241 170.499 115.16 170.713 115.124C170.926 115.089 171.145 115.1 171.354 115.157C171.563 115.214 171.757 115.316 171.923 115.455C176.582 119.376 191.927 133.055 193.863 144.75Z" stroke="black" stroke-width="5" stroke-miterlimit="10"/>
<path d="M187.12 146.88C187.51 149.235 186.949 151.648 185.559 153.589C184.17 155.53 182.066 156.839 179.712 157.229" stroke="black" stroke-width="5" stroke-linecap="round" stroke-linejoin="round"/>
</g>
<defs>
<clipPath id="clip0">
<rect width="62.5979" height="62.5979" fill="white" transform="translate(55 369.003) rotate(-7.3457)"/>
</clipPath>
<clipPath id="clip1">
<rect width="92.2336" height="92.2336" fill="white" transform="translate(1289.2 36) rotate(8.22519)"/>
</clipPath>
<clipPath id="clip2">
<rect width="64" height="64" fill="white" transform="translate(40 33)"/>
</clipPath>
<clipPath id="clip3">
<rect width="64" height="64" fill="white" transform="translate(138 113.456) rotate(-9.40239)"/>
</clipPath>
</defs>
</svg>
