<svg width="1248" height="1248" viewBox="0 0 1248 1248" fill="none" xmlns="http://www.w3.org/2000/svg">
<path d="M624 1248C968.626 1248 1248 968.626 1248 624C1248 279.374 968.626 0 624 0C279.374 0 0 279.374 0 624C0 968.626 279.374 1248 624 1248Z" fill="#88C9F9"/>
<path d="M97.4827 879.664C95.3333 844.998 95.3333 838.515 95.3333 797.331C95.3333 756.147 114.816 762.664 134.333 743.182C153.851 723.699 149.517 721.515 182 700.16C214.483 678.806 197.184 654.366 195 641.366C192.816 628.366 173.333 639.182 140.816 643.48C108.299 647.779 119.184 632.664 99.6667 623.998C80.1493 615.331 71.5173 602.331 58.4827 563.331C45.448 524.331 43.2987 513.48 47.6667 480.997C52.0347 448.515 67.184 478.814 69.3333 513.48C71.4827 548.147 101.851 535.147 101.851 556.814C101.851 578.48 145.184 602.296 156 608.814C166.816 615.331 197.184 576.296 208 565.48C218.816 554.664 231.851 539.48 236.149 530.814C240.448 522.147 294.667 515.629 305.483 515.629C316.299 515.629 342.299 548.147 342.299 563.296C342.299 578.446 355.299 619.63 366.149 643.446C377 667.262 400.816 671.595 422.483 688.928C444.149 706.262 455 691.078 455 691.078C455 691.078 446.333 654.261 446.333 623.893C446.333 593.525 472.333 567.56 472.333 567.56C472.333 567.56 513.517 597.893 515.667 606.56C517.816 615.227 550.333 645.56 552.483 660.71C554.632 675.859 571.965 695.376 603.893 699.71C635.821 704.043 613.149 662.894 623.965 634.71C634.781 606.526 649.965 602.192 669.448 597.893C688.931 593.595 704.115 576.227 717.115 558.893C730.115 541.56 753.931 517.709 751.781 498.227C749.632 478.744 743.115 465.709 734.448 441.893C725.781 418.077 760.448 409.376 775.632 381.227C790.816 353.077 775.632 381.227 810.299 372.56C844.965 363.893 829.781 363.893 836.299 350.893C842.816 337.893 847.115 324.894 840.632 301.043C834.149 277.192 810.299 301.043 786.483 301.043C762.667 301.043 795.184 268.664 797.333 242.664C799.483 216.664 829.851 223.182 851.483 220.998C873.115 218.814 879.632 249.147 886.149 255.664C892.667 262.182 959.816 212.331 977.149 188.48C994.483 164.629 962 171.181 970.667 161.128C979.333 151.075 918.667 149.03 894.816 145.182C870.965 141.334 810.333 138.664 786.517 123.966C762.701 109.267 671.701 120.36 647.851 132.182C624 144.003 608.851 131.176 598 114.848C587.149 98.5202 541.667 106.701 528.667 97.5148C515.667 88.3282 502.667 112.664 485.333 119.182C468 125.699 461.483 127.848 439.851 114.848C418.219 101.848 446.333 86.6642 416 75.8482C395.685 68.6028 371.349 72.8322 333.493 72.0002C135.269 176.52 0 384.347 0 623.998C0 742.558 33.6613 852.971 91.0693 947.334C101.747 929.376 99.0773 905.144 97.4827 879.664ZM600.149 838.515C615.333 840.664 658.667 838.515 624 810.366C589.333 782.216 569.851 803.848 574.149 771.366C578.448 738.883 552.483 738.848 552.483 738.848C552.483 762.699 535.149 788.699 552.483 812.515C569.816 836.331 585 836.331 600.149 838.515Z" fill="#5C913B"/>
<path d="M821.204 476.667C786.537 448.517 812.537 457.184 816.87 424.667C821.204 392.149 795.204 392.149 795.204 392.149C795.204 416 777.87 442 795.204 465.816C812.537 489.632 760.537 509.149 775.721 511.299C790.905 513.448 855.87 504.816 821.204 476.667V476.667ZM686.697 814.667C708.19 838.517 699.87 814.667 728.02 803.851C756.169 793.035 704.169 769.184 686.836 756.184C669.502 743.184 652.273 742.699 637.124 771.368C619.929 803.851 665.204 790.816 686.697 814.667V814.667ZM940.353 858C929.537 845 905.686 838.517 879.686 839.107C853.686 839.731 855.836 810.333 829.836 812.483C803.836 814.632 785.254 795.011 773.502 788.944C747.953 775.771 764.836 805.965 773.502 839.072C782.169 872.179 814.686 847.115 844.985 864.448C875.284 881.781 877.502 857.931 905.652 866.597C933.801 875.264 944.652 894.747 971.657 892.597C998.662 890.448 951.204 871 940.353 858V858ZM884.02 953.333C873.204 931.667 841.518 912.149 828.518 901.16C815.518 890.171 795.169 886.461 777.836 892.84C760.502 899.219 749.686 892.84 741.02 875.68C732.353 858.52 717.169 864.517 704.204 866.667C691.238 868.816 639.204 890.517 608.87 905.667C578.537 920.816 564.74 933.989 544.841 953.333C513.71 983.632 530.87 964.149 544.841 983.667C558.812 1003.15 529.518 1063.82 527.369 1098.48C525.22 1133.15 582.905 1087.67 604.572 1083.3C626.238 1078.93 619.86 1065.97 637.193 1052.97C654.526 1039.97 665.793 1036.91 684.825 1054.25C703.857 1071.58 728.782 1087.63 728.782 1107.11C728.782 1126.6 797.388 1159.11 823.388 1146.11C849.388 1133.11 864.572 1107.11 888.388 1085.45C912.204 1063.78 903.572 1022.63 910.054 996.632C916.537 970.632 894.836 975 884.02 953.333V953.333Z" fill="#5C913B"/>
</svg>
